<svg fill="white" baseProfile="tiny" height="24px" id="Layer_1" version="1.1" viewBox="0 0 24 24" width="24px" xml:space="preserve" xmlns="http://www.w3.org/2000/svg" xmlns:xlink="http://www.w3.org/1999/xlink"><g><g><g><g><g><path d="M-0.009,24l2.194-5.704c-1.242-1.919-1.896-4.14-1.896-6.435C0.289,5.32,5.609,0,12.149,0       c6.539,0,11.86,5.32,11.86,11.861c0,6.539-5.321,11.86-11.86,11.86c-2.231,0-4.401-0.627-6.291-1.813L-0.009,24z M5.967,20.974       l0.175,0.114c1.792,1.171,3.869,1.79,6.007,1.79c6.076,0,11.017-4.941,11.017-11.017S18.225,0.842,12.149,0.842       S1.131,5.785,1.131,11.861c0,2.202,0.648,4.328,1.874,6.149l0.123,0.182l-1.692,4.399L5.967,20.974z"/></g></g></g></g><g><g><g><g><path d="M15.135,17.749c-1.433,0-4.369-1.708-5.768-3.108c-1.251-1.251-3.107-4.224-3.107-5.767       c0-1.542,1.646-3.259,2.761-3.259h0.155l0.117,0.1c0.296,0.252,1.788,1.534,2.087,2.117c0.432,0.842-0.624,2.048-1.181,2.6       c0.249,0.314,0.815,0.986,1.603,1.774c0.743,0.744,1.649,1.145,2.07,1.305c0.366-0.36,1.113-1.003,1.796-1.003l0.1,0.011       l0.415,0.113c0.578,0.297,1.859,1.789,2.109,2.084l0.1,0.118v0.154C18.392,16.104,16.677,17.749,15.135,17.749z M8.886,6.474       c-0.666,0.16-1.785,1.385-1.785,2.4c0,1.275,1.731,4.042,2.861,5.172c1.364,1.364,4.071,2.861,5.173,2.861       c1.015,0,2.239-1.12,2.397-1.785c-0.561-0.65-1.373-1.521-1.697-1.722l-0.208-0.05c-0.336,0.035-0.928,0.488-1.326,0.927       l-0.179,0.196l-0.255-0.076c-0.155-0.046-1.546-0.483-2.661-1.597c-0.73-0.73-1.856-1.975-1.954-2.325l-0.071-0.251       l0.195-0.175c0.758-0.681,1.379-1.589,1.253-1.833C10.477,7.917,9.562,7.058,8.886,6.474z"/></g></g></g></g></g></svg>